<svg width="33" height="76" viewBox="0 0 33 76" fill="none" xmlns="http://www.w3.org/2000/svg">
<path d="M21.924 48.258C22.344 48.258 22.554 48.468 22.554 48.888V49.896C22.554 50.316 22.344 50.526 21.924 50.526H20.097C19.929 50.526 19.845 50.61 19.845 50.778V62.37C19.845 62.79 19.635 63 19.215 63H18.018C17.598 63 17.388 62.79 17.388 62.37V50.778C17.388 50.61 17.304 50.526 17.136 50.526H2.268C1.848 50.526 1.638 50.316 1.638 49.896V48.888C1.638 48.72 1.68 48.468 1.764 48.132L11.655 19.404C11.781 19.068 12.033 18.9 12.411 18.9H13.734C14.196 18.9 14.364 19.131 14.238 19.593L4.536 47.943C4.494 48.027 4.494 48.111 4.536 48.195C4.578 48.237 4.641 48.258 4.725 48.258H17.136C17.304 48.258 17.388 48.174 17.388 48.006V37.044C17.388 36.624 17.598 36.414 18.018 36.414H19.215C19.635 36.414 19.845 36.624 19.845 37.044V48.006C19.845 48.174 19.929 48.258 20.097 48.258H21.924Z" fill="#474747"/>
<path d="M29.395 36.182C30.2783 36.182 31.038 36.3587 31.674 36.712C31.9213 36.8533 31.992 37.083 31.886 37.401L31.568 38.461C31.462 38.779 31.2323 38.8673 30.879 38.726C30.3843 38.514 29.7483 38.4257 28.971 38.461C27.487 38.461 26.2503 39.1853 25.261 40.634C24.307 42.0827 23.83 43.8847 23.83 46.04V62.47C23.83 62.8233 23.6533 63 23.3 63H22.293C21.9397 63 21.763 62.8233 21.763 62.47V36.924C21.763 36.5707 21.9397 36.394 22.293 36.394H23.3C23.6533 36.394 23.83 36.5707 23.83 36.924V40.369C23.83 40.475 23.8653 40.528 23.936 40.528C24.0067 40.528 24.0597 40.475 24.095 40.369C24.625 39.0617 25.3317 38.037 26.215 37.295C27.0983 36.553 28.1583 36.182 29.395 36.182Z" fill="#474747"/>
</svg>
