<svg width="58" height="76" viewBox="0 0 58 76" fill="none" xmlns="http://www.w3.org/2000/svg">
<path d="M35.89 55.92C35.89 56.12 35.79 56.22 35.59 56.22H28.75C28.67 56.22 28.63 56.26 28.63 56.34V58.53C28.63 59.37 28.86 60.06 29.32 60.6C29.8 61.12 30.42 61.38 31.18 61.38C31.82 61.38 32.36 61.19 32.8 60.81C33.26 60.41 33.56 59.9 33.7 59.28C33.76 59.1 33.87 59.01 34.03 59.01L35.53 59.07C35.61 59.07 35.68 59.1 35.74 59.16C35.8 59.22 35.82 59.3 35.8 59.4C35.64 60.58 35.15 61.52 34.33 62.22C33.53 62.9 32.48 63.24 31.18 63.24C29.76 63.24 28.62 62.82 27.76 61.98C26.92 61.14 26.5 60.03 26.5 58.65V52.17C26.5 50.81 26.92 49.71 27.76 48.87C28.62 48.01 29.76 47.58 31.18 47.58C32.62 47.58 33.76 48.01 34.6 48.87C35.46 49.71 35.89 50.81 35.89 52.17V55.92ZM31.18 49.44C30.42 49.44 29.8 49.71 29.32 50.25C28.86 50.77 28.63 51.46 28.63 52.32V54.33C28.63 54.41 28.67 54.45 28.75 54.45H33.67C33.75 54.45 33.79 54.41 33.79 54.33V52.32C33.79 51.46 33.55 50.77 33.07 50.25C32.59 49.71 31.96 49.44 31.18 49.44ZM44.4468 47.61C45.6668 47.61 46.6068 48.03 47.2668 48.87C47.9468 49.71 48.2868 50.88 48.2868 52.38V62.7C48.2868 62.9 48.1868 63 47.9868 63H46.4568C46.2568 63 46.1568 62.9 46.1568 62.7V52.56C46.1568 51.58 45.9368 50.82 45.4968 50.28C45.0768 49.74 44.4868 49.47 43.7268 49.47C42.9268 49.47 42.2968 49.76 41.8368 50.34C41.3968 50.92 41.1768 51.71 41.1768 52.71V62.7C41.1768 62.9 41.0768 63 40.8768 63H39.3468C39.1468 63 39.0468 62.9 39.0468 62.7V48.12C39.0468 47.92 39.1468 47.82 39.3468 47.82H40.8768C41.0768 47.82 41.1768 47.92 41.1768 48.12V49.08C41.1768 49.12 41.1968 49.15 41.2368 49.17C41.2768 49.19 41.3068 49.17 41.3268 49.11C41.6868 48.61 42.1368 48.24 42.6768 48C43.2368 47.74 43.8268 47.61 44.4468 47.61ZM57.1016 49.11C57.1016 49.31 57.0016 49.41 56.8016 49.41H54.5216C54.4416 49.41 54.4016 49.45 54.4016 49.53V58.71C54.4016 59.63 54.5616 60.27 54.8816 60.63C55.2016 60.97 55.6916 61.13 56.3516 61.11H56.6516C56.8516 61.11 56.9516 61.21 56.9516 61.41V62.7C56.9516 62.9 56.8516 63 56.6516 63H55.9016C54.7216 63 53.8216 62.75 53.2016 62.25C52.6016 61.73 52.3016 60.76 52.3016 59.34V49.53C52.3016 49.45 52.2616 49.41 52.1816 49.41H51.0116C50.8116 49.41 50.7116 49.31 50.7116 49.11V48.12C50.7116 47.92 50.8116 47.82 51.0116 47.82H52.1816C52.2616 47.82 52.3016 47.78 52.3016 47.7V44.34C52.3016 44.14 52.4016 44.04 52.6016 44.04H54.1016C54.3016 44.04 54.4016 44.14 54.4016 44.34V47.7C54.4016 47.78 54.4416 47.82 54.5216 47.82H56.8016C57.0016 47.82 57.1016 47.92 57.1016 48.12V49.11Z" fill="#474747"/>
<path d="M21.924 48.258C22.344 48.258 22.554 48.468 22.554 48.888V49.896C22.554 50.316 22.344 50.526 21.924 50.526H20.097C19.929 50.526 19.845 50.61 19.845 50.778V62.37C19.845 62.79 19.635 63 19.215 63H18.018C17.598 63 17.388 62.79 17.388 62.37V50.778C17.388 50.61 17.304 50.526 17.136 50.526H2.268C1.848 50.526 1.638 50.316 1.638 49.896V48.888C1.638 48.72 1.68 48.468 1.764 48.132L11.655 19.404C11.781 19.068 12.033 18.9 12.411 18.9H13.734C14.196 18.9 14.364 19.131 14.238 19.593L4.536 47.943C4.494 48.027 4.494 48.111 4.536 48.195C4.578 48.237 4.641 48.258 4.725 48.258H17.136C17.304 48.258 17.388 48.174 17.388 48.006V37.044C17.388 36.624 17.598 36.414 18.018 36.414H19.215C19.635 36.414 19.845 36.624 19.845 37.044V48.006C19.845 48.174 19.929 48.258 20.097 48.258H21.924Z" fill="#474747"/>
<path d="M29.395 36.182C30.2783 36.182 31.038 36.3587 31.674 36.712C31.9213 36.8533 31.992 37.083 31.886 37.401L31.568 38.461C31.462 38.779 31.2323 38.8673 30.879 38.726C30.3843 38.514 29.7483 38.4257 28.971 38.461C27.487 38.461 26.2503 39.1853 25.261 40.634C24.307 42.0827 23.83 43.8847 23.83 46.04V62.47C23.83 62.8233 23.6533 63 23.3 63H22.293C21.9397 63 21.763 62.8233 21.763 62.47V36.924C21.763 36.5707 21.9397 36.394 22.293 36.394H23.3C23.6533 36.394 23.83 36.5707 23.83 36.924V40.369C23.83 40.475 23.8653 40.528 23.936 40.528C24.0067 40.528 24.0597 40.475 24.095 40.369C24.625 39.0617 25.3317 38.037 26.215 37.295C27.0983 36.553 28.1583 36.182 29.395 36.182Z" fill="#474747"/>
</svg>
