<svg width="50" height="76" viewBox="0 0 50 76" fill="none" xmlns="http://www.w3.org/2000/svg">
<circle cx="25" cy="38" r="25" fill="white"/>
<path d="M26.924 48.258C27.344 48.258 27.554 48.468 27.554 48.888V49.896C27.554 50.316 27.344 50.526 26.924 50.526H25.097C24.929 50.526 24.845 50.61 24.845 50.778V62.37C24.845 62.79 24.635 63 24.215 63H23.018C22.598 63 22.388 62.79 22.388 62.37V50.778C22.388 50.61 22.304 50.526 22.136 50.526H7.268C6.848 50.526 6.638 50.316 6.638 49.896V48.888C6.638 48.72 6.68 48.468 6.764 48.132L16.655 19.404C16.781 19.068 17.033 18.9 17.411 18.9H18.734C19.196 18.9 19.364 19.131 19.238 19.593L9.536 47.943C9.494 48.027 9.494 48.111 9.536 48.195C9.578 48.237 9.641 48.258 9.725 48.258H22.136C22.304 48.258 22.388 48.174 22.388 48.006V37.044C22.388 36.624 22.598 36.414 23.018 36.414H24.215C24.635 36.414 24.845 36.624 24.845 37.044V48.006C24.845 48.174 24.929 48.258 25.097 48.258H26.924Z" fill="#474747"/>
<path d="M34.395 36.182C35.2783 36.182 36.038 36.3587 36.674 36.712C36.9213 36.8533 36.992 37.083 36.886 37.401L36.568 38.461C36.462 38.779 36.2323 38.8673 35.879 38.726C35.3843 38.514 34.7483 38.4257 33.971 38.461C32.487 38.461 31.2503 39.1853 30.261 40.634C29.307 42.0827 28.83 43.8847 28.83 46.04V62.47C28.83 62.8233 28.6533 63 28.3 63H27.293C26.9397 63 26.763 62.8233 26.763 62.47V36.924C26.763 36.5707 26.9397 36.394 27.293 36.394H28.3C28.6533 36.394 28.83 36.5707 28.83 36.924V40.369C28.83 40.475 28.8653 40.528 28.936 40.528C29.0067 40.528 29.0597 40.475 29.095 40.369C29.625 39.0617 30.3317 38.037 31.215 37.295C32.0983 36.553 33.1583 36.182 34.395 36.182Z" fill="#474747"/>
</svg>
